<svg xmlns="http://www.w3.org/2000/svg" enable-background="new 0 0 67 67" viewBox="0 0 67 67"><polygon fill="#BCD6EF" points="65.4 14.6 52.3 14.6 52.3 1.5"/><polygon fill="#BCD6EF" points="65.4 14.6 52.3 14.6 52.3 1.5"/><path fill="#0FCAAD" d="M59.2,28.8c-0.6-0.5-1.5-0.9-2.7-1.2h0v-3c0.8,0.1,1.6,0.4,2.3,0.9l1-1.5c-1-0.7-2.1-1.1-3.3-1.2v-0.8h-1
			v0.8c-1,0.1-1.9,0.4-2.5,1c-0.6,0.6-1,1.3-1,2.3c0,0.9,0.3,1.6,0.8,2.1c0.6,0.5,1.4,0.8,2.6,1.1v3.1c-0.9-0.2-1.9-0.6-2.8-1.4
			l-1.2,1.4c1.2,1,2.5,1.6,3.9,1.7v1.2h1v-1.1c1.1-0.1,1.9-0.4,2.6-1c0.7-0.6,1-1.3,1-2.3C60.1,30,59.8,29.3,59.2,28.8z M55.5,27.4
			c-0.6-0.2-1-0.4-1.2-0.6C54.1,26.6,54,26.3,54,26c0-0.4,0.1-0.7,0.4-0.9c0.3-0.2,0.6-0.4,1.1-0.4V27.4z M57.7,32
			c-0.3,0.2-0.7,0.4-1.2,0.4v-2.9c0.6,0.2,1.1,0.4,1.3,0.6c0.2,0.2,0.4,0.5,0.4,0.9C58.1,31.5,58,31.8,57.7,32z"/><rect width="45.6" height="44.7" x="1.1" y="21.3" fill="#FFF"/><polygon fill="#BCD6EF" points="42 42.2 42 61.5 36.9 61.5 36.9 46.2 40.6 42.2"/><polygon fill="#1FA6F8" points="32.2 51.2 34.6 48.6 34.6 61.5 29.5 61.5 29.5 49.1"/><polygon fill="#BCD6EF" points="24.7 45.3 27.3 47.3 27.3 61.5 22.1 61.5 22.1 47"/><polygon fill="#0FCAAD" points="14.8 52.2 19.9 48.6 19.9 61.5 14.8 61.5"/><polygon fill="#1FA6F8" points="7.4 57.4 12.6 53.8 12.6 61.5 7.4 61.5"/><rect width="9.9" height="3.9" x="5.6" y="24.4" fill="#FF9889"/><rect width="25.9" height="3.9" x="17.3" y="24.4" fill="#BCD6EF"/><rect width="37.6" height="1.6" x="5.6" y="29.8" fill="#BCD6EF"/><rect width="37.6" height="1.6" x="5.6" y="32.6" fill="#BCD6EF"/><rect width="45.6" height="5.3" x="1.6" y="15.5" fill="#1FA6F8"/><path fill="#222F59" d="M65.9,14.4L52.5,1H20v14H1.6c-0.3,0-0.5,0.2-0.5,0.5c0,10.2,0,40,0,50c0,0.3,0.2,0.5,0.5,0.5
				c47.3-0.2,46.1,0.5,46.1-0.5v-3.8h18.2V14.4z M52.7,2.6l11.6,11.6H52.7V2.6z M2.1,16c8.3,0,34.6,0,44.6,0v4.3
				c-9.7,0-36.3,0-44.6,0V16z M46.7,65H2.1V21.3c8.3,0,34.6,0,44.6,0C46.7,29.3,46.7,59.9,46.7,65z M47.7,60.7c0-8.1,0-39.1,0-45.2
				c0-0.3-0.2-0.5-0.5-0.5H21V2h30.9v12.6c0,0.2,0.2,0.4,0.4,0.4h12.6v45.7H47.7z"/><path fill="#222F59" d="M38.4,37l0.1,1.2l2-0.2L32,47l-7.3-5.8C20.4,44.3,6.6,54,6.4,54.1l0.7,1c5.3-3.7,12.3-8.6,17.6-12.3
				l7.4,5.9l9.3-10l0.1,2l1.2,0l-0.1-4.2L38.4,37z"/><path fill="#FFF" d="M6.8 18.1c0 .6-.5 1.1-1.1 1.1-.6 0-1.1-.5-1.1-1.1 0-.6.5-1.1 1.1-1.1C6.4 17 6.8 17.5 6.8 18.1zM10.9 18.1c0 .6-.5 1.1-1.1 1.1-.6 0-1.1-.5-1.1-1.1 0-.6.5-1.1 1.1-1.1C10.4 17 10.9 17.5 10.9 18.1zM15 18.1c0 .6-.5 1.1-1.1 1.1-.6 0-1.1-.5-1.1-1.1 0-.6.5-1.1 1.1-1.1C14.5 17 15 17.5 15 18.1z"/><rect width="21.3" height="1" x="22.9" y="17.6" fill="#FFF"/><rect width="11.1" height="1" x="50.3" y="56.3" fill="#BCD6EF"/><rect width="11.1" height="1" x="50.3" y="52.2" fill="#BCD6EF"/><rect width="11.1" height="1" x="50.3" y="48.1" fill="#BCD6EF"/><rect width="11.1" height="1" x="50.3" y="44" fill="#BCD6EF"/><rect width="11.1" height="1" x="50.3" y="39.9" fill="#BCD6EF"/><rect width="22.7" height="1" x="24.5" y="5.5" fill="#BCD6EF"/><rect width="22.7" height="1" x="24.5" y="10.3" fill="#BCD6EF"/></svg>