<svg xmlns="http://www.w3.org/2000/svg" width="32" height="32" viewBox="0 0 32 32"><g transform="translate(0 -1020.362)"><g transform="translate(1.91 114.811) scale(.88793)"><path fill="none" stroke="#2dbca4" stroke-linecap="round" stroke-linejoin="round" d="m 12.691117,1035.101 2.509332,-2.4667 0.716953,0.7048 1.433904,-1.4095 0.716952,0.7047 2.867809,-2.819"/><path fill="none" stroke="#2dbca4" stroke-linecap="round" stroke-linejoin="round" d="m 19.641238,1028.9333 2,0 0,2"/><path fill="none" stroke="#406b95" stroke-linecap="round" stroke-linejoin="round" d="m 12.346439,1028.3057 0.0947,6.8004 3.99288,0 5.190513,0"/></g><path fill="#ee7581" d="m 10.075288,1040.3585 -1.3635814,2.3588 -0.8535939,1.4767 -0.7242952,1.253 -0.6146768,1.0632 -1.1803128,2.0418 c -0.4271741,0.7388 -0.1761648,1.6768 0.5627885,2.1029 0.738942,0.426 1.6778335,0.1744 2.1049578,-0.5646 l 4.7363978,-8.1936"/><rect width="4.409" height="4.912" x="-533.139" y="891.757" fill="#2dbca4" stroke="#105286" stroke-linejoin="round" transform="matrix(-.8663 -.49953 -.50047 .86575 0 0)"/><path fill="#2dbca4" d="m 17.338193,1022.8634 a 8.3558581,8.3662335 60.925475 0 0 -7.4412789,4.1819 8.3558581,8.3662335 60.925475 0 0 3.0552819,11.4156 8.3558581,8.3662335 60.925475 0 0 11.425867,-3.0655 8.3558581,8.3662335 60.925475 0 0 -3.055282,-11.4157 8.3558581,8.3662335 60.925475 0 0 -3.984188,-1.1156 z m -0.03675,1.54 a 6.8166214,6.8250857 60.924883 0 1 3.250667,0.9093 6.8166214,6.8250857 60.924883 0 1 2.491959,9.3136 6.8166214,6.8250857 60.924883 0 1 -9.322012,2.5004 6.8166214,6.8250857 60.924883 0 1 -2.491957,-9.3137 6.8166214,6.8250857 60.924883 0 1 6.071443,-3.4095 z"/><path fill="none" stroke="#105286" stroke-linejoin="round" d="m -524.11583,884.78436 a 6.8188581,6.8228512 0 0 1 -5.96929,6.76969 6.8188581,6.8228512 0 0 1 -7.45673,-5.08279 6.8188581,6.8228512 0 0 1 4.11119,-8.03624 6.8188581,6.8228512 0 0 1 8.48117,3.08029" transform="matrix(-.8663 -.49953 -.50047 .86575 0 0)"/><path fill="none" stroke="#105286" stroke-linejoin="round" d="m 10.075288,1040.3585 -1.3635812,2.3588 m -0.8536438,1.4766 -0.2668781,0.4617 m -0.3012652,0.521 -0.156102,0.2704 -0.6146769,1.0632 -1.1803128,2.0418 c -0.4271741,0.7388 -0.1761649,1.6768 0.5627885,2.1029 0.738942,0.426 1.6777836,0.1743 2.1049579,-0.5646 l 4.7363976,-8.1936"/><ellipse cx="-530.935" cy="884.784" fill="none" stroke="#105286" stroke-linejoin="round" rx="8.359" ry="8.363" transform="matrix(-.8663 -.49953 -.50047 .86575 0 0)"/></g></svg>