<svg xmlns="http://www.w3.org/2000/svg" width="32" height="32" viewBox="0 0 32 32"><g transform="translate(571.786 -885.395)"><path fill="none" stroke="#373449" d="M-546.28729 900.90849c0 5.3063 0 8.675 0 13.9813l-19.00223 0c0-5.321 0-8.6063 0-13.9273m0-4.0216c0-2.3351 0-6.7058 0-9.0409l19.00223 0c0 2.3351 0 6.6076 0 8.9427M-562.85202 905.89999l11.06606 0M-562.78952 908.89999l13.00356 0M-562.78952 911.89999l14 0"/><rect width="2" height="2" x="-563.286" y="890.9" fill="#00d1b6" stroke="#373449" stroke-miterlimit="3.9"/><rect width="11" height="2" x="-559.286" y="890.9" fill="#ff5a67" stroke="#373449" stroke-miterlimit="3.9"/><rect width="14" height="4" x="-567.286" y="896.925" fill="#00d1b6" stroke="#373449" stroke-miterlimit="3.9"/><rect width="7" height="4" x="-551.286" y="896.925" fill="#ff5a67" stroke="#373449" stroke-miterlimit="3.9"/><path fill="none" stroke="#373449" d="m -549.02815,899.78549 1.24219,-1.323 1.24219,1.323"/></g></svg>